<svg width="12" height="14" viewBox="0 0 12 14" fill="none" xmlns="http://www.w3.org/2000/svg">
<path d="M4.65021 11.4769C4.9136 11.3939 5.05986 11.1132 4.9769 10.8498C4.89394 10.5864 4.61317 10.4401 4.34979 10.5231L4.65021 11.4769ZM1.00197 8.51639L0.518359 8.38942L0.264421 9.35664L0.748031 9.48361L1.00197 8.51639ZM8 13.5V14H9V13.5H8ZM8.0625 8.6875L8.00906 8.19036C7.81734 8.21097 7.65455 8.33999 7.5907 8.52194C7.52686 8.70389 7.57333 8.90634 7.71013 9.04224L8.0625 8.6875ZM11.5 4.9125H12L12 4.91089L11.5 4.9125ZM10.6669 2.90625L10.2008 2.72524C10.1291 2.90974 10.1731 3.11914 10.3128 3.2593L10.6669 2.90625ZM10.6169 0.889374L11.0734 0.685488C11.0132 0.550566 10.8963 0.449206 10.7542 0.408612L10.6169 0.889374ZM8.44438 1.68125L8.31826 2.16508C8.45382 2.20042 8.59799 2.17726 8.71566 2.10125L8.44438 1.68125ZM4.55562 1.68125L4.28442 2.1013C4.40208 2.17727 4.54621 2.20041 4.68174 2.16508L4.55562 1.68125ZM2.38313 0.889374L2.24564 0.408647C2.10362 0.449265 1.98682 0.550607 1.92658 0.685488L2.38313 0.889374ZM2.33313 2.90625L2.68715 3.25933C2.82693 3.11917 2.87087 2.90975 2.79921 2.72524L2.33313 2.90625ZM1.5 4.92875H2L2 4.92747L1.5 4.92875ZM4.9375 8.6875L5.29045 9.04165C5.42616 8.9064 5.47265 8.7055 5.41015 8.52439C5.34765 8.34328 5.18715 8.21381 4.99691 8.19104L4.9375 8.6875ZM4.5 10H5C5 9.98778 4.99955 9.97557 4.99866 9.96338L4.5 10ZM4 13.5V14H5V13.5H4ZM4.34979 10.5231C3.74678 10.713 3.3643 10.6918 3.11084 10.6082C2.85886 10.525 2.66567 10.3578 2.4814 10.1175C2.38808 9.99589 2.3021 9.86227 2.21181 9.71611C2.12597 9.57714 2.02879 9.41418 1.93047 9.26919C1.73966 8.9878 1.45815 8.63616 1.00197 8.51639L0.748031 9.48361C0.827476 9.50447 0.932058 9.57861 1.10281 9.83042C1.18527 9.95203 1.26274 10.0825 1.36104 10.2417C1.4549 10.3936 1.56254 10.5627 1.68797 10.7262C1.9412 11.0563 2.28599 11.389 2.79744 11.5578C3.30742 11.7261 3.91384 11.7088 4.65021 11.4769L4.34979 10.5231ZM9 9.9375C9 9.6201 8.98611 9.33008 8.89602 9.05958C8.8001 8.77159 8.63428 8.55071 8.41487 8.33276L7.71013 9.04224C7.8651 9.19617 7.91802 9.28778 7.94726 9.37557C7.98232 9.48085 8 9.62989 8 9.9375H9ZM8.11594 9.18464C9.01888 9.08758 10.004 8.85986 10.7626 8.20319C11.5429 7.52773 12 6.47445 12 4.9125H11C11 6.2718 10.6105 7.01226 10.1081 7.44712C9.58409 7.90076 8.8505 8.09992 8.00906 8.19036L8.11594 9.18464ZM12 4.91089C11.9971 4.02667 11.6453 3.17934 11.0209 2.5532L10.3128 3.2593C10.751 3.69877 10.998 4.29349 11 4.91411L12 4.91089ZM11.133 3.08726C11.2823 2.70286 11.3539 2.29267 11.3436 1.88041L10.3439 1.9052C10.3509 2.18532 10.3022 2.46404 10.2008 2.72524L11.133 3.08726ZM11.3436 1.88041C11.3334 1.46816 11.2416 1.06202 11.0734 0.685488L10.1603 1.09326C10.2746 1.34911 10.337 1.62508 10.3439 1.9052L11.3436 1.88041ZM10.6169 0.889374C10.7542 0.408612 10.7538 0.408478 10.7533 0.408344C10.7531 0.408298 10.7527 0.408164 10.7523 0.408073C10.7517 0.407892 10.751 0.407709 10.7504 0.407524C10.749 0.407155 10.7477 0.40678 10.7462 0.406399C10.7434 0.405637 10.7404 0.404853 10.7372 0.404052C10.7309 0.40245 10.7239 0.400783 10.7161 0.399093C10.7007 0.395711 10.6826 0.392247 10.6617 0.389037C10.6199 0.38261 10.5674 0.377252 10.504 0.375558C10.3769 0.372165 10.2079 0.383536 9.99475 0.429082C9.56915 0.520014 8.97001 0.746497 8.17309 1.26125L8.71566 2.10125C9.43499 1.63663 9.9221 1.46717 10.2037 1.40701C10.3441 1.37701 10.434 1.37404 10.4773 1.3752C10.4991 1.37578 10.5097 1.37742 10.5097 1.37742C10.5098 1.37743 10.5072 1.37704 10.5021 1.37592C10.4996 1.37537 10.4964 1.37463 10.4927 1.37368C10.4908 1.3732 10.4887 1.37267 10.4865 1.37209C10.4854 1.37179 10.4843 1.37148 10.4831 1.37116C10.4826 1.37099 10.482 1.37083 10.4814 1.37066C10.4811 1.37057 10.4806 1.37044 10.4804 1.3704C10.48 1.37027 10.4795 1.37014 10.6169 0.889374ZM8.57049 1.19742C7.21284 0.843535 5.78716 0.843535 4.42951 1.19742L4.68174 2.16508C5.87399 1.85431 7.12601 1.85431 8.31826 2.16508L8.57049 1.19742ZM4.82683 1.2612C4.02965 0.746488 3.43054 0.520017 3.00504 0.429087C2.79191 0.38354 2.62298 0.372164 2.49591 0.375558C2.4325 0.377253 2.38003 0.382614 2.33822 0.389046C2.31734 0.392258 2.2992 0.395726 2.28376 0.399112C2.27604 0.400804 2.26901 0.402474 2.26266 0.404078C2.25948 0.40488 2.25647 0.405666 2.25364 0.406429C2.25222 0.406811 2.25085 0.407187 2.24951 0.407557C2.24885 0.407742 2.24819 0.407925 2.24755 0.408107C2.24722 0.408198 2.24675 0.408332 2.24659 0.408378C2.24611 0.408513 2.24564 0.408647 2.38313 0.889374C2.52061 1.3701 2.52014 1.37023 2.51968 1.37037C2.51953 1.37041 2.51907 1.37054 2.51876 1.37062C2.51816 1.3708 2.51756 1.37096 2.51698 1.37112C2.51581 1.37145 2.51467 1.37176 2.51357 1.37206C2.51138 1.37265 2.50934 1.37318 2.50745 1.37365C2.50367 1.37461 2.5005 1.37535 2.49795 1.3759C2.49286 1.37702 2.49028 1.37742 2.49029 1.37742C2.4903 1.37741 2.49295 1.37701 2.49829 1.37653C2.50363 1.37605 2.51172 1.37549 2.52262 1.3752C2.56589 1.37405 2.65567 1.377 2.79606 1.40701C3.07758 1.46717 3.56473 1.63664 4.28442 2.1013L4.82683 1.2612ZM1.92658 0.685488C1.75843 1.06202 1.66658 1.46816 1.65636 1.88041L2.65606 1.9052C2.663 1.62508 2.72541 1.34911 2.83967 1.09326L1.92658 0.685488ZM1.65636 1.88041C1.64614 2.29267 1.71775 2.70286 1.86704 3.08726L2.79921 2.72524C2.69777 2.46404 2.64911 2.18532 2.65606 1.9052L1.65636 1.88041ZM1.9791 2.55317C1.66761 2.8655 1.42079 3.23621 1.25278 3.64407L2.1774 4.02495C2.29532 3.7387 2.46854 3.47853 2.68715 3.25933L1.9791 2.55317ZM1.25278 3.64407C1.08477 4.05193 0.998872 4.48892 1 4.93003L2 4.92747C1.99921 4.61789 2.05949 4.31119 2.1774 4.02495L1.25278 3.64407ZM1 4.92875C1 6.48166 1.45806 7.52573 2.23874 8.19657C2.99602 8.84729 3.97941 9.07641 4.87809 9.18396L4.99691 8.19104C4.15121 8.08984 3.41586 7.88958 2.89048 7.43812C2.3885 7.00677 2 6.27584 2 4.92875H1ZM4.58455 8.33335C4.08499 8.83121 3.95633 9.42365 4.00134 10.0366L4.99866 9.96338C4.96867 9.5551 5.05126 9.28004 5.29045 9.04165L4.58455 8.33335ZM4 10V13.5H5V10H4ZM9 13.5V12H8V13.5H9ZM9 12V9.9375H8V12H9Z" fill="white"/>
</svg>
