<svg width="577" height="651" viewBox="0 0 577 651" fill="none" xmlns="http://www.w3.org/2000/svg">
<ellipse opacity="0.07" cx="288.26" cy="442.798" rx="258.919" ry="191.202" fill="#0038A8"/>
<g filter="url(#filter0_d)">
<path d="M328.827 127.614C328.827 127.614 464.254 148.803 453.985 341.779C453.947 342.494 469.643 352.915 470.873 354.028C481.817 363.927 491 376.604 495.015 391.434C509.314 444.241 458.193 498.653 416.853 513.096C401.412 518.489 385.091 521.108 368.737 521.584C262.427 524.68 121.678 457.111 114.449 325.152C114.19 320.418 114.126 315.678 114.248 310.95C114.889 285.894 120.936 261.492 130.05 238.835C130.046 238.836 189.212 92.0798 328.827 127.614Z" fill="#FFE4C0"/>
<g style="mix-blend-mode:multiply" opacity="0.5">
<path d="M457.409 343.807C455.944 347.401 454.482 351.993 454.074 354.62C452.331 365.885 456.188 377.519 462.883 385.884C469.24 393.827 478.318 398.98 487.107 400.924C490.074 401.581 493.667 401.919 496.81 402.025C493.497 369.398 466.94 349.815 457.409 343.807Z" fill="#FFE7E2"/>
</g>
<g style="mix-blend-mode:multiply" opacity="0.5">
<path d="M266.527 429.569C291.675 424.164 307.282 397.659 301.385 370.369C295.488 343.079 270.321 325.338 245.173 330.743C220.024 336.148 204.418 362.653 210.315 389.943C216.212 417.233 241.379 434.974 266.527 429.569Z" fill="#FFE7E2"/>
</g>
<path opacity="0.3" d="M389.667 353.243C389.667 353.243 411.149 332.803 427.781 352.021L389.667 353.243Z" fill="#CBA284"/>
<path d="M189.355 455.119C117.88 490.944 52.9643 401.04 73.7283 350.519C86.9736 318.293 125.627 315.798 148.036 345.244C161.261 362.622 171.965 384.834 178.046 406.081" fill="#FFE4C0"/>
<path opacity="0.3" d="M130.447 374.893C139.649 384.259 147.048 398.148 156.14 405.898C154.455 392.935 151.769 379.092 145.471 367.409C139.077 355.543 127.453 345.767 115.621 346.569C100.957 347.564 88.89 364.647 87.3434 380.137C88.2679 370.867 106.905 364.599 114.02 365.479C125.168 386.489 129.497 427.894 129.497 427.894C138.769 404.458 135.005 386.021 130.447 374.893Z" fill="#CBA284"/>
<path d="M413.004 402.728C422.634 402.994 431.869 400.239 439.822 391.971C443.983 387.649 448.203 385.27 454.174 388.967C468.469 397.822 471.834 419.943 467.992 434.776C463.773 451.051 451.064 464.172 436.419 472.73C397.008 495.759 366.78 490.576 326.451 475.855C294.708 464.272 251.792 440.92 262.67 400.732C276.142 350.974 334.2 374.864 366.959 388.287C380.868 393.992 397.452 402.295 413.004 402.728Z" fill="white"/>
<mask id="mask0" mask-type="alpha" maskUnits="userSpaceOnUse" x="260" y="370" width="210" height="119">
<path d="M413.003 402.728C422.634 402.994 431.869 400.239 439.822 391.971C443.983 387.649 448.203 385.27 454.174 388.967C468.469 397.822 471.834 419.943 467.992 434.775C463.773 451.051 451.064 464.172 436.418 472.73C397.008 495.758 366.78 490.576 326.451 475.855C294.708 464.272 251.792 440.92 262.67 400.732C276.142 350.974 334.2 374.864 366.959 388.287C380.868 393.992 397.452 402.295 413.003 402.728Z" fill="white"/>
</mask>
<g mask="url(#mask0)">
<path fill-rule="evenodd" clip-rule="evenodd" d="M281.522 457.998L322.779 353.844L328.522 356.12L287.265 460.274L281.522 457.998ZM366.295 491.651L394.792 382.362L400.769 383.922L372.273 493.21L366.295 491.651ZM451.109 465.263L435.385 385.138L441.447 383.948L457.171 464.073L451.109 465.263Z" fill="#D1D3D4"/>
</g>
<path d="M367.281 329.453C351.182 317.087 331.501 319.529 322.866 322.542C322.67 322.61 322.522 322.356 322.659 322.2C344.894 296.944 361.631 315.874 367.594 329.226C367.678 329.415 367.445 329.579 367.281 329.453Z" fill="#2A1200"/>
<path d="M447.708 320.568C447.692 328.766 443.982 337.57 434.487 336.558C426.519 335.709 424.485 325.247 424.495 320.097C424.512 311.088 429.025 302.577 435.608 302.565C442.689 302.552 447.724 312.369 447.708 320.568Z" fill="#2A1200"/>
<path d="M359.663 257.138C345.576 254.846 330.48 260.111 320.346 270.79C317.078 274.234 316.164 280.34 319.578 284.228C322.732 287.825 328.47 288.926 331.967 285.235C333.015 284.129 334.11 283.08 335.271 282.109C335.631 281.806 336.634 281.269 336.95 280.822C337.125 280.706 337.297 280.59 337.477 280.478C338.584 279.781 339.722 279.143 340.887 278.564C341.555 278.233 342.228 277.926 342.91 277.635C343.126 277.545 343.341 277.458 343.561 277.372C344.16 277.267 344.847 276.943 345.393 276.794C346.106 276.599 346.82 276.428 347.544 276.278C348.805 276.015 350.079 275.817 351.358 275.689C351.538 275.67 351.714 275.657 351.894 275.643C352.584 275.646 353.273 275.633 353.965 275.661C355.437 275.722 356.901 275.886 358.359 276.121C362.912 276.863 367.633 272.38 367.768 267.457C367.91 262.037 364.54 257.933 359.663 257.138Z" fill="#71472D"/>
<path d="M454.241 273.322C449.125 266.281 441.608 261.661 433.499 260.32C431.311 259.958 428.756 260.797 427.049 262.258C425.367 263.696 423.955 266.232 423.808 268.6C423.657 271.058 424.142 273.695 425.677 275.628C427.232 277.588 429.184 278.833 431.561 279.229C431.95 279.293 432.328 279.403 432.715 279.487C433.858 279.881 434.964 280.368 436.041 280.94C437.267 281.77 438.415 282.713 439.489 283.768C439.839 284.187 440.21 284.588 440.535 285.034C441.937 286.961 444.186 288.334 446.418 288.635C448.556 288.923 451.217 288.235 452.868 286.693C454.58 285.096 455.953 282.883 456.109 280.351C456.267 277.827 455.723 275.361 454.241 273.322Z" fill="#71472D"/>
<path d="M468.604 180.685C467.705 162.935 461.183 136.205 440.429 142.392C436.79 143.476 433.593 145.857 431.141 148.949C430.19 145.4 428.805 141.86 427.071 138.367C422.266 128.677 409.157 124.829 400.583 130.83C398.604 132.217 396.969 133.912 395.588 135.761C375.067 119.978 353.049 106.379 329.056 98.4452C294.058 86.8688 255.975 87.8635 220.792 98.7627C217.019 99.9302 213.277 101.214 209.564 102.601C174.506 115.705 139.052 137.821 115.949 169.613C93.2814 200.802 81.5451 239.458 77.656 278.619C76.5332 289.911 75.9524 301.272 75.9696 312.629C75.9696 313.727 75.9696 307.273 76.3137 320.349C86.2771 297.691 125.447 302.326 125.447 302.326L148.124 328.073C153.601 335.035 159.535 377.991 166.526 372.873L169.618 371.328C174.432 367.802 171.808 340.022 171.666 333.722C170.746 292.297 187.795 249.05 215.453 223.824C243.568 198.182 284.374 188.31 321.695 185.989C353.023 184.042 383.529 191.915 410.607 209.212C419.293 214.76 427.557 221.144 435.151 228.34C435.697 228.858 443.166 237.175 443.488 237.007C461.833 227.574 468.94 204.874 468.712 184.145C468.699 183.038 468.664 181.88 468.604 180.685Z" fill="#202020"/>
<path d="M329.056 98.4502C353.049 106.384 375.067 119.983 395.588 135.766C396.651 134.337 397.924 133.058 399.335 131.9C396.53 135.089 394.323 139.227 392.465 143.168C384.183 136.173 373.755 132.325 363.292 135.528C353.281 138.596 346.213 147.063 341.962 156.99C318.085 142.65 292.531 137.181 263.203 142.701C228.089 149.309 197.402 173.676 177.023 204.94C149.583 247.038 149.273 326.727 169.936 370.88C169.437 371.352 169.936 370.88 166.542 373.542C159.551 378.66 150.548 341.976 130.448 331.677C121.515 326.699 98.9064 322.305 79.9396 342.491C75.9696 324.468 75.9696 316.229 75.9696 306.96C75.9526 295.751 76.5182 290.065 77.6124 279.062L77.656 278.624C81.5452 239.463 93.2814 200.807 115.949 169.618C139.052 137.826 174.506 115.71 209.564 102.606C213.277 101.219 217.02 99.9352 220.792 98.7678C255.975 87.8685 294.058 86.8738 329.056 98.4502Z" fill="#101010"/>
</g>
<defs>
<filter id="filter0_d" x="0" y="0" width="576.974" height="650.89" filterUnits="userSpaceOnUse" color-interpolation-filters="sRGB">
<feFlood flood-opacity="0" result="BackgroundImageFix"/>
<feColorMatrix in="SourceAlpha" type="matrix" values="0 0 0 0 0 0 0 0 0 0 0 0 0 0 0 0 0 0 127 0"/>
<feOffset dy="4"/>
<feGaussianBlur stdDeviation="7.5"/>
<feColorMatrix type="matrix" values="0 0 0 0 0 0 0 0 0 0 0 0 0 0 0 0 0 0 0.25 0"/>
<feBlend mode="normal" in2="BackgroundImageFix" result="effect1_dropShadow"/>
<feBlend mode="normal" in="SourceGraphic" in2="effect1_dropShadow" result="shape"/>
</filter>
</defs>
</svg>
