<svg width="21" height="21" viewBox="0 0 21 21" fill="none" xmlns="http://www.w3.org/2000/svg">
<path d="M17 11.24V11.0267C17 10.0841 16.2359 9.32001 15.2933 9.32001H13.8C12.7396 9.32001 11.88 10.1796 11.88 11.24C11.88 12.3004 12.7396 13.16 13.8 13.16H15.08C16.1404 13.16 17 14.0196 17 15.08C17 16.1404 16.1404 17 15.08 17H13.8C12.7396 17 11.88 16.1404 11.88 15.08M9.32001 8.68001V15.08C9.32001 16.1404 8.4604 17 7.40001 17C6.33963 17 5.48001 16.1404 5.48001 15.08M1.64001 1.64001H19.56V19.56H1.64001V1.64001Z" stroke="black" stroke-width="1.3"/>
</svg>
