<svg width="21" height="21" viewBox="0 0 21 21" fill="none" xmlns="http://www.w3.org/2000/svg">
<path d="M3.56001 5.57151L3.35447 4.95487C3.03225 5.06227 2.84705 5.39965 2.92942 5.72916L3.56001 5.57151ZM6.57716 4.5658L7.15854 4.27511C7.01387 3.98578 6.67848 3.84686 6.37161 3.94915L6.57716 4.5658ZM12.6114 16.6344L12.0301 16.9251C12.111 17.087 12.2559 17.2078 12.4297 17.2584C12.6035 17.3091 12.7906 17.2849 12.9459 17.1917L12.6114 16.6344ZM17.64 13.6172L17.9744 14.1746C18.1248 14.0844 18.2323 13.9372 18.2726 13.7666C18.3129 13.5959 18.2825 13.4162 18.1884 13.2683L17.64 13.6172ZM14.12 8.0858L13.9624 7.4552C13.7597 7.50588 13.5937 7.6509 13.5163 7.84497C13.4389 8.03904 13.4595 8.25849 13.5716 8.43476L14.12 8.0858ZM16.1314 7.58294L16.6514 7.19294C16.4945 6.98372 16.2275 6.88892 15.9738 6.95235L16.1314 7.58294ZM17.64 9.59437L17.8456 10.211C18.0438 10.1449 18.1981 9.98761 18.2604 9.78818C18.3227 9.58874 18.2854 9.37152 18.16 9.20437L17.64 9.59437ZM5.57144 13.6172L4.94085 13.7749C4.98476 13.9505 5.09994 14.0999 5.25866 14.187C5.41737 14.2741 5.60523 14.2911 5.77699 14.2339L5.57144 13.6172ZM3.76556 6.18815L6.78271 5.18244L6.37161 3.94915L3.35447 4.95487L3.76556 6.18815ZM5.99578 4.85648L9.73129 12.3275L10.894 11.7461L7.15854 4.27511L5.99578 4.85648ZM9.73129 12.3275L12.0301 16.9251L13.1928 16.3437L10.894 11.7461L9.73129 12.3275ZM12.9459 17.1917L17.9744 14.1746L17.3056 13.0599L12.277 16.077L12.9459 17.1917ZM18.1884 13.2683L16.0764 9.9494L14.9796 10.6473L17.0916 13.9662L18.1884 13.2683ZM16.0764 9.9494L14.6684 7.73683L13.5716 8.43476L14.9796 10.6473L16.0764 9.9494ZM14.2777 8.71639L16.2891 8.21353L15.9738 6.95235L13.9624 7.4552L14.2777 8.71639ZM15.6114 7.97294L17.12 9.98437L18.16 9.20437L16.6514 7.19294L15.6114 7.97294ZM17.4345 8.97772L15.3225 9.68172L15.7336 10.915L17.8456 10.211L17.4345 8.97772ZM15.3225 9.68172L10.1071 11.4202L10.5182 12.6535L15.7336 10.915L15.3225 9.68172ZM10.1071 11.4202L5.3659 13.0006L5.77699 14.2339L10.5182 12.6535L10.1071 11.4202ZM6.20204 13.4596L4.19061 5.41386L2.92942 5.72916L4.94085 13.7749L6.20204 13.4596ZM4.20001 2.29001H17V0.990015H4.20001V2.29001ZM18.91 4.20001V17H20.21V4.20001H18.91ZM17 18.91H4.20001V20.21H17V18.91ZM2.29001 17V4.20001H0.990015V17H2.29001ZM4.20001 18.91C3.14515 18.91 2.29001 18.0549 2.29001 17H0.990015C0.990015 18.7728 2.42718 20.21 4.20001 20.21V18.91ZM18.91 17C18.91 18.0549 18.0549 18.91 17 18.91V20.21C18.7728 20.21 20.21 18.7728 20.21 17H18.91ZM17 2.29001C18.0549 2.29001 18.91 3.14515 18.91 4.20001H20.21C20.21 2.42718 18.7728 0.990015 17 0.990015V2.29001ZM4.20001 0.990015C2.42718 0.990015 0.990015 2.42718 0.990015 4.20001H2.29001C2.29001 3.14515 3.14515 2.29001 4.20001 2.29001V0.990015Z" fill="black"/>
</svg>
