<svg width="15" height="14" viewBox="0 0 15 14" fill="none" xmlns="http://www.w3.org/2000/svg">
<path d="M7.5 0.5L7.69696 0.0404275C7.57119 -0.0134758 7.42881 -0.0134758 7.30304 0.0404275L7.5 0.5ZM0.5 3.5L0.30304 3.04043C0.119198 3.11922 0 3.29999 0 3.5C0 3.70001 0.119198 3.88078 0.30304 3.95957L0.5 3.5ZM7.5 6.5L7.30304 6.95957C7.42881 7.01348 7.57119 7.01348 7.69696 6.95957L7.5 6.5ZM14.5 3.5L14.697 3.95957C14.8808 3.88078 15 3.70001 15 3.5C15 3.29999 14.8808 3.11922 14.697 3.04043L14.5 3.5ZM7.5 9.5L7.30304 9.95957L7.5 10.044L7.69696 9.95957L7.5 9.5ZM7.5 12.5L7.30304 12.9596L7.5 13.044L7.69696 12.9596L7.5 12.5ZM7.30304 0.0404275L0.30304 3.04043L0.69696 3.95957L7.69696 0.959573L7.30304 0.0404275ZM0.30304 3.95957L7.30304 6.95957L7.69696 6.04043L0.69696 3.04043L0.30304 3.95957ZM7.69696 6.95957L14.697 3.95957L14.303 3.04043L7.30304 6.04043L7.69696 6.95957ZM14.697 3.04043L7.69696 0.0404275L7.30304 0.959573L14.303 3.95957L14.697 3.04043ZM0.30304 6.95957L7.30304 9.95957L7.69696 9.04043L0.69696 6.04043L0.30304 6.95957ZM7.69696 9.95957L14.697 6.95957L14.303 6.04043L7.30304 9.04043L7.69696 9.95957ZM0.30304 9.95957L7.30304 12.9596L7.69696 12.0404L0.69696 9.04043L0.30304 9.95957ZM7.69696 12.9596L14.697 9.95957L14.303 9.04043L7.30304 12.0404L7.69696 12.9596Z" fill="black"/>
</svg>
