<svg width="46" height="48" viewBox="0 0 46 48" fill="none" xmlns="http://www.w3.org/2000/svg">
<g clip-path="url(#clip0)">
<path d="M4.18368 39.3616C4.18368 40.1109 4.00388 40.6508 3.64428 40.9811C3.28468 41.3115 2.68505 41.4763 1.84539 41.4754H0V47.9987H3.01453C5.80365 47.9987 7.97808 47.3162 9.53783 45.9513C11.0976 44.5864 11.877 42.3598 11.8761 39.2713V10.9315H4.18368V39.3616Z" fill="black" fill-opacity="0.87"/>
<path d="M43.7486 7.53434C42.3974 5.16432 40.39 3.23533 37.968 1.97957C35.4783 0.658972 32.5691 -0.000884825 29.2406 8.90465e-07H17.4097V31.5788H29.2406C32.539 31.5788 35.4406 30.9194 37.9454 29.6006C40.382 28.3455 42.399 26.4061 43.7486 24.0206C45.1135 21.6212 45.796 18.8755 45.796 15.7834C45.796 12.6684 45.1135 9.91868 43.7486 7.53434ZM35.538 22.5379C33.919 24.1269 31.6546 24.9214 28.745 24.9214H25.1021V6.56713H28.7464C31.6542 6.56713 33.9185 7.37712 35.5394 8.9971C37.1602 10.6171 37.9698 12.8814 37.968 15.7901C37.968 18.6988 37.158 20.948 35.538 22.5379Z" fill="black" fill-opacity="0.87"/>
</g>
<defs>
<clipPath id="clip0">
<rect width="45.7959" height="48" fill="white"/>
</clipPath>
</defs>
</svg>
