<svg width="23" height="24" viewBox="0 0 23 24" fill="none" xmlns="http://www.w3.org/2000/svg">
<path d="M17.0225 6.02666H18.5159M7.31586 1.54666H16.2759C19.5748 1.54666 22.2492 4.22101 22.2492 7.51999V16.48C22.2492 19.779 19.5748 22.4533 16.2759 22.4533H7.31586C4.01688 22.4533 1.34253 19.779 1.34253 16.48V7.51999C1.34253 4.22101 4.01688 1.54666 7.31586 1.54666ZM11.7959 16.48C9.32163 16.48 7.31586 14.4742 7.31586 12C7.31586 9.52576 9.32163 7.51999 11.7959 7.51999C14.2701 7.51999 16.2759 9.52576 16.2759 12C16.2759 14.4742 14.2701 16.48 11.7959 16.48Z" stroke="black"/>
</svg>
