<svg width="518" height="361" viewBox="0 0 518 361" fill="none" xmlns="http://www.w3.org/2000/svg">
<g filter="url(#filter0_d)">
<path d="M276.315 137.452L367.679 136.966L432.607 201.206L432.607 292.043L368.81 357.539L277.489 358.025L212.541 293.764L212.055 202.4L276.315 137.452Z" fill="#2A62DF" stroke="#BAF7FB" stroke-width="18.6669"/>
<path d="M208.039 200.501L274.705 133.122L316.007 133.122L316.007 160.27L316.007 160.27L315.991 361.99L275.897 361.99L208.544 295.303L208.039 200.501Z" fill="#75EFF8" stroke="#75EFF8" stroke-width="10.3705"/>
<path d="M321.458 351.569L280.637 351.569L219.416 290.898L219.416 205.801L279.488 144.777L321.458 144.777L321.458 351.569Z" fill="#F55247"/>
<path d="M321.188 351.569L365.089 351.569L424.964 290.706L424.964 205.801L364.892 144.777L321.188 144.776L321.188 351.569Z" fill="#F87D75"/>
<path fill-rule="evenodd" clip-rule="evenodd" d="M333.776 265.264L307.462 292.426L267.932 292.003L267.932 267.116L297.066 237.982L321.48 237.982L333.776 237.982L333.776 265.264ZM282.731 270.011L282.731 280.284H303.276L321.253 262.307V250.323L302.42 250.323L282.731 270.011Z" fill="#47EAF5"/>
<path fill-rule="evenodd" clip-rule="evenodd" d="M321.269 223.195L347.298 196.327L386.4 196.745L386.4 221.363L357.582 250.182L333.773 250.182V265.331L321.181 278.3L321.001 262.563L321.269 223.195ZM372.289 218.13V207.857L351.745 207.857L333.768 225.834V237.818L352.601 237.818L372.289 218.13Z" fill="#BAF7FB"/>
<path d="M336.506 228.244L309.873 254.043L310.375 260.166L317.023 261.424L343.656 235.625L343.22 228.95L336.506 228.244Z" fill="#75EFF8"/>
<path d="M229.82 92.6419L213.866 76.6879L229.82 60.7339V92.6419Z" fill="#75EFF8"/>
<path d="M229.82 92.6417L245.774 76.6878L229.82 60.7338V92.6417Z" fill="#E8FCFE"/>
<path d="M447.018 105.937L431.064 89.9833L447.018 74.0293V105.937Z" fill="#F87D75"/>
<path d="M447.018 105.937L462.972 89.9827L447.018 74.0287V105.937Z" fill="#FAA9A3"/>
<path d="M103.792 300.045L87.8376 284.091L103.792 268.137V300.045Z" fill="#F87D75"/>
<path d="M103.792 300.044L119.746 284.09L103.792 268.136V300.044Z" fill="#FAA9A3"/>
</g>
<defs>
<filter id="filter0_d" x="-19" y="-82" width="671" height="671" filterUnits="userSpaceOnUse" color-interpolation-filters="sRGB">
<feFlood flood-opacity="0" result="BackgroundImageFix"/>
<feColorMatrix in="SourceAlpha" type="matrix" values="0 0 0 0 0 0 0 0 0 0 0 0 0 0 0 0 0 0 127 0"/>
<feOffset dx="-4" dy="-4"/>
<feGaussianBlur stdDeviation="7.5"/>
<feColorMatrix type="matrix" values="0 0 0 0 0 0 0 0 0 0 0 0 0 0 0 0 0 0 0.25 0"/>
<feBlend mode="normal" in2="BackgroundImageFix" result="effect1_dropShadow"/>
<feBlend mode="normal" in="SourceGraphic" in2="effect1_dropShadow" result="shape"/>
</filter>
</defs>
</svg>
