<svg width="29" height="29" viewBox="0 0 29 29" fill="none" xmlns="http://www.w3.org/2000/svg">
<path fill-rule="evenodd" clip-rule="evenodd" d="M0 2.88C0 1.28942 1.28942 0 2.88 0H25.92C27.5106 0 28.8 1.28942 28.8 2.88V25.92C28.8 27.5106 27.5106 28.8 25.92 28.8H2.88C1.28942 28.8 0 27.5106 0 25.92V2.88ZM9.6 9.6H7.68V7.68H9.6V9.6ZM7.68 21.12V11.52H9.6V21.12H7.68ZM16.32 13.44C14.7294 13.44 13.44 14.7294 13.44 16.32V21.12H11.52V11.52H13.44V12.4796C14.2422 11.8771 15.2394 11.52 16.32 11.52C18.971 11.52 21.12 13.669 21.12 16.32V21.12H19.2V16.32C19.2 14.7294 17.9106 13.44 16.32 13.44Z" fill="#0077B5"/>
</svg>
