<svg width="24" height="24" viewBox="0 0 24 24" fill="none" xmlns="http://www.w3.org/2000/svg">
<path d="M7.20005 12L13.6 12M17.6 6.40005L13.6 11.9927L17.6 17.6M23.2 3.99796C23.2 5.76321 21.7664 7.19588 20 7.19588C18.2336 7.19588 16.8 5.76321 16.8 3.99796C16.8 2.23271 18.2336 0.800049 20 0.800049C21.7664 0.800049 23.2 2.23271 23.2 3.99796ZM23.2 19.9875C23.2 21.7528 21.7664 23.1854 20 23.1854C18.2336 23.1854 16.8 21.7528 16.8 19.9875C16.8 18.2223 18.2336 16.7896 20 16.7896C21.7664 16.7896 23.2 18.2223 23.2 19.9875ZM7.20005 11.9927C7.20005 13.758 5.76645 15.1907 4.00005 15.1907C2.23365 15.1907 0.800049 13.758 0.800049 11.9927C0.800049 10.2275 2.23365 8.79482 4.00005 8.79482C5.76645 8.79482 7.20005 10.2275 7.20005 11.9927Z" stroke="white" stroke-opacity="0.87" stroke-width="1.5" stroke-linecap="square"/>
</svg>
