<svg width="24" height="24" viewBox="0 0 24 24" fill="none" xmlns="http://www.w3.org/2000/svg">
<path d="M22.4169 3.03998L22.9158 3.0069C22.9025 2.80633 22.7704 2.63322 22.5805 2.56748C22.3905 2.50173 22.1797 2.55614 22.0452 2.70557L22.4169 3.03998ZM21.4259 7.45861C21.4259 7.18247 21.2021 6.95861 20.9259 6.95861C20.6498 6.95861 20.4259 7.18247 20.4259 7.45861H21.4259ZM11.9797 7.58135H11.4797H11.9797ZM11.9797 9.01331L12.4797 9.01331V9.01331L11.9797 9.01331ZM1.54254 19.4666V18.9666C1.32227 18.9666 1.12795 19.1108 1.06405 19.3216C1.00014 19.5324 1.08171 19.7602 1.26489 19.8825L1.54254 19.4666ZM3.03357 3.03998L3.50182 2.86465C3.43206 2.67832 3.25845 2.55108 3.05975 2.54066C2.86105 2.53025 2.67509 2.63863 2.58622 2.81665L3.03357 3.03998ZM8.99768 16.48L9.35151 16.8333C9.47387 16.7107 9.52411 16.5336 9.48429 16.365C9.44448 16.1965 9.32028 16.0605 9.15602 16.0057L8.99768 16.48ZM19.7852 4.49356L19.4143 4.8289L19.5945 5.02815L19.8601 4.98792L19.7852 4.49356ZM21.918 3.07306C21.9959 4.24697 21.9268 4.9917 21.7219 5.56935C21.5206 6.13656 21.1708 6.59285 20.58 7.15897L21.2718 7.88099C21.9132 7.26646 22.3883 6.68179 22.6643 5.90368C22.9366 5.13602 22.997 4.23107 22.9158 3.0069L21.918 3.07306ZM21.4259 8.54663V7.45861H20.4259V8.54663H21.4259ZM11.4797 7.58135L11.4797 9.01331L12.4797 9.01331L12.4797 7.58135L11.4797 7.58135ZM11.4797 9.01331L11.4797 9.75998L12.4797 9.75998L12.4797 9.01331L11.4797 9.01331ZM16.5141 2.53998C13.733 2.53998 11.4797 4.7978 11.4797 7.58135H12.4797C12.4797 5.34863 14.2867 3.53998 16.5141 3.53998V2.53998ZM20.4259 8.54663C20.4259 15.1269 15.1 20.46 8.53173 20.46V21.46C15.6537 21.46 21.4259 15.6777 21.4259 8.54663H20.4259ZM2.56532 3.2153C3.35498 5.32432 6.33155 9.51331 11.9797 9.51331V8.51331C6.89253 8.51331 4.20319 4.73786 3.50182 2.86465L2.56532 3.2153ZM2.58622 2.81665C1.04692 5.9 0.824074 8.85859 1.92347 11.3611C3.02114 13.8596 5.39309 15.8037 8.83935 16.9542L9.15602 16.0057C5.89265 14.9162 3.79152 13.127 2.83902 10.9589C1.88825 8.7947 2.03816 6.15329 3.48092 3.26331L2.58622 2.81665ZM8.64386 16.1267C7.71337 17.0586 4.95081 18.9666 1.54254 18.9666V19.9666C5.29121 19.9666 8.29399 17.8924 9.35151 16.8333L8.64386 16.1267ZM20.1561 4.15822C19.2581 3.16514 17.9587 2.53998 16.5141 2.53998V3.53998C17.6641 3.53998 18.6978 4.03644 19.4143 4.8289L20.1561 4.15822ZM19.8601 4.98792C20.9371 4.8248 21.9941 4.25761 22.7887 3.37438L22.0452 2.70557C21.3994 3.42341 20.5495 3.87209 19.7103 3.9992L19.8601 4.98792ZM1.26489 19.8825C3.64444 21.4713 6.13889 21.46 8.53173 21.46V20.46C6.10585 20.46 3.91373 20.4487 1.82019 19.0508L1.26489 19.8825Z" fill="black"/>
</svg>
